<?xml version="1.0" standalone="no"?>
<!DOCTYPE svg PUBLIC "-//W3C//DTD SVG 20010904//EN"
 "http://www.w3.org/TR/2001/REC-SVG-20010904/DTD/svg10.dtd">
<svg version="1.0" xmlns="http://www.w3.org/2000/svg"
 width="200.000000pt" height="200.000000pt" viewBox="0 0 200.000000 200.000000"
 preserveAspectRatio="xMidYMid meet">
<metadata>
Created by potrace 1.11, written by Peter Selinger 2001-2013
</metadata>
<g transform="translate(0.000000,200.000000) scale(0.100000,-0.100000)"
fill="#000000" stroke="none">
<path d="M332 1378 l3 -522 214 -124 214 -125 236 0 236 0 215 125 215 124 3
521 2 521 -87 -37 c-49 -21 -150 -64 -225 -95 -75 -32 -138 -63 -140 -69 -5
-20 -123 -227 -129 -227 -6 0 -39 100 -39 118 0 7 6 12 14 12 32 0 24 20 -15
43 -34 21 -46 23 -65 15 -26 -12 -28 -16 -45 -108 -6 -36 -15 -68 -18 -72 -6
-7 -121 189 -129 218 -2 6 -13 16 -25 22 -24 11 -376 158 -414 173 l-23 9 2
-522z"/>
<path d="M998 388 c-15 -5 -30 -19 -34 -31 -12 -33 -12 -178 -1 -210 16 -48
67 -61 108 -29 20 17 23 29 25 112 1 51 -2 105 -8 120 -11 34 -51 51 -90 38z
m50 -139 c2 -93 0 -107 -14 -113 -27 -10 -34 12 -34 106 0 98 6 120 29 116 13
-3 16 -21 19 -109z"/>
<path d="M605 248 l0 -143 44 -1 c31 -1 50 5 68 20 23 20 26 30 27 101 4 134
-13 165 -94 165 l-46 0 1 -142z m83 100 c14 -14 16 -176 3 -197 -5 -8 -17 -16
-25 -17 -14 -2 -16 14 -16 112 0 116 7 133 38 102z"/>
<path d="M785 248 c0 -136 1 -143 20 -143 21 0 22 2 24 65 0 22 5 40 9 40 5 0
16 -25 26 -55 17 -55 22 -60 49 -49 13 5 12 13 -8 58 -22 51 -22 52 -4 75 30
37 21 119 -15 143 -6 4 -31 8 -56 8 l-46 0 1 -142z m84 94 c13 -24 5 -83 -11
-94 -25 -16 -33 -7 -31 34 1 24 2 51 2 61 1 23 28 22 40 -1z"/>
<path d="M1130 381 c0 -14 24 -27 48 -25 31 2 30 -8 -28 -151 -12 -28 -30 -87
-30 -95 0 -3 29 -7 65 -7 55 -1 65 2 65 17 0 12 -8 17 -27 18 -16 0 -33 0 -40
1 -8 1 -4 23 13 69 34 89 64 174 64 179 0 1 -29 3 -65 3 -36 0 -65 -4 -65 -9z"/>
<path d="M1286 248 l0 -143 40 -1 c84 -2 105 32 99 161 -3 88 -1 81 -25 105
-14 14 -33 20 -67 20 l-48 0 1 -142z m82 100 c8 -8 12 -46 12 -105 0 -81 -2
-94 -19 -103 -11 -5 -22 -10 -25 -10 -3 0 -6 52 -6 115 0 117 6 135 38 103z"/>
</g>
</svg>
